<?xml version="1.0" encoding="UTF-8"?>
<svg xmlns="http://www.w3.org/2000/svg" xmlns:xlink="http://www.w3.org/1999/xlink" width="3200" height="3200" viewBox="0 0 3200 3200">
<path fill-rule="nonzero" fill="rgb(98.826599%, 56.834412%, 1.177979%)" fill-opacity="1" d="M 1577.929688 477.058594 C 1190.238281 477.050781 866.21875 756.46875 796.507812 1124.300781 L 962.90625 1124.300781 C 1029.328125 845.871094 1278.640625 639.800781 1577.929688 639.800781 C 1900.71875 639.800781 2165.53125 879.429688 2205.269531 1191.109375 L 2084.511719 1191.109375 L 2084.511719 1233.128906 L 2520.46875 1233.128906 L 2520.46875 1191.109375 L 2369.199219 1191.109375 C 2328.261719 790.808594 1988.789062 477.058594 1577.929688 477.058594 Z M 2535.308594 1191.109375 L 2535.308594 1241.519531 C 2535.539062 1242.488281 2535.980469 1243.449219 2535.980469 1244.5 C 2535.980469 1245.550781 2535.539062 1246.46875 2535.308594 1247.429688 L 2535.308594 1297.488281 C 2535.539062 1298.449219 2535.980469 1299.421875 2535.980469 1300.46875 C 2535.980469 1301.519531 2535.539062 1302.441406 2535.308594 1303.390625 L 2535.308594 1353.851562 L 2663.769531 1299.550781 L 2663.769531 1245.421875 Z M 2677.890625 1251.410156 L 2677.890625 1293.558594 L 2727.679688 1272.480469 Z M 2084.511719 1255.871094 L 2084.511719 1289.101562 L 2520.46875 1289.101562 L 2520.46875 1255.871094 Z M 2084.511719 1311.828125 L 2084.511719 1353.851562 L 2520.46875 1353.851562 L 2520.46875 1311.828125 L 2084.511719 1311.828125 "/>
<path fill-rule="nonzero" fill="rgb(11.376953%, 48.242188%, 24.705505%)" fill-opacity="1" d="M 575.214844 1191.109375 L 446.761719 1245.421875 L 446.761719 1299.550781 L 575.214844 1353.851562 L 575.214844 1303.390625 C 574.992188 1302.429688 574.542969 1301.511719 574.542969 1300.46875 C 574.542969 1299.410156 574.992188 1298.449219 575.214844 1297.488281 L 575.214844 1247.429688 C 574.992188 1246.460938 574.542969 1245.550781 574.542969 1244.5 C 574.542969 1243.449219 574.992188 1242.480469 575.214844 1241.519531 Z M 589.992188 1191.109375 L 589.992188 1233.128906 L 1026.011719 1233.128906 L 1026.011719 1191.109375 Z M 432.636719 1251.410156 L 382.78125 1272.480469 L 432.636719 1293.558594 Z M 589.992188 1255.871094 L 589.992188 1289.101562 L 1026.011719 1289.101562 L 1026.011719 1255.871094 Z M 589.992188 1311.828125 L 589.992188 1353.851562 L 786.65625 1353.851562 C 827.601562 1754.148438 1167.050781 2067.910156 1577.929688 2067.898438 C 1965.621094 2067.910156 2289.640625 1788.5 2359.351562 1420.660156 L 2192.960938 1420.660156 C 2126.53125 1699.101562 1877.21875 1905.210938 1577.929688 1905.210938 C 1255.140625 1905.210938 990.328125 1665.539062 950.59375 1353.851562 L 1026.011719 1353.851562 L 1026.011719 1311.828125 L 589.992188 1311.828125 "/>
<path fill-rule="nonzero" fill="rgb(0%, 49.021912%, 70.896912%)" fill-opacity="1" d="M 1127.351562 966.421875 L 1127.351562 1553.898438 L 1541.480469 1726.988281 L 1541.480469 1139.449219 L 1127.351562 966.421875 "/>
<path fill-rule="nonzero" fill="rgb(0%, 49.021912%, 70.896912%)" fill-opacity="1" d="M 1983.109375 966.421875 L 1568.960938 1139.46875 L 1568.960938 1726.988281 L 1983.109375 1553.890625 Z M 1951.269531 1014.160156 L 1951.269531 1436.53125 L 1929.71875 1047.039062 L 1667.210938 1134.359375 L 1951.269531 1014.160156 "/>
<path fill-rule="nonzero" fill="rgb(0%, 49.021912%, 70.896912%)" fill-opacity="1" d="M 1304.5 817.980469 L 1305.390625 910.441406 L 1386.011719 967.398438 L 1515.941406 1081.769531 L 1304.5 817.980469 "/>
<path fill-rule="nonzero" fill="rgb(0%, 49.021912%, 70.896912%)" fill-opacity="1" d="M 1908.511719 873.351562 L 1908.511719 964.238281 L 1610.230469 1092.820312 Z M 1908.511719 873.351562 "/>
<path fill-rule="nonzero" fill="rgb(0%, 49.021912%, 70.896912%)" fill-opacity="1" d="M 1805.929688 817.980469 L 1805.039062 910.441406 L 1724.421875 967.398438 L 1594.488281 1081.769531 L 1805.929688 817.980469 "/>
<path fill-rule="nonzero" fill="rgb(0%, 49.021912%, 70.896912%)" fill-opacity="1" d="M 1201.898438 873.351562 L 1201.898438 964.238281 L 1500.199219 1092.820312 Z M 1201.898438 873.351562 "/>
<path fill-rule="nonzero" fill="rgb(11.376953%, 48.242188%, 24.705505%)" fill-opacity="1" d="M 1276.691406 2226.1875 C 1239.511719 2226.1875 1208.011719 2238.769531 1182.179688 2263.878906 C 1156.570312 2288.992188 1143.789062 2320.351562 1143.789062 2358.015625 C 1143.789062 2395.441406 1156.339844 2426.476562 1181.460938 2451.105469 C 1206.800781 2475.730469 1238.910156 2488.050781 1277.789062 2488.050781 C 1316.898438 2488.050781 1350.859375 2471.871094 1379.578125 2439.515625 L 1343.339844 2402.222656 C 1325.699219 2424.195312 1303.019531 2435.191406 1275.261719 2435.191406 C 1254.980469 2435.191406 1237.699219 2428.054688 1223.441406 2413.808594 C 1209.199219 2399.5625 1202.101562 2380.738281 1202.101562 2357.316406 C 1202.101562 2333.65625 1209.558594 2314.9375 1224.53125 2301.179688 C 1239.730469 2287.171875 1257.980469 2280.1875 1279.25 2280.1875 C 1305.800781 2280.1875 1327.980469 2291.292969 1345.871094 2313.507812 L 1381.019531 2273.632812 C 1353.011719 2242 1318.21875 2226.1875 1276.691406 2226.1875 Z M 380.898438 2232.003906 L 380.898438 2485.164062 L 437.378906 2485.164062 L 437.378906 2414.550781 L 471.09375 2414.550781 C 508.5 2414.550781 536.261719 2407.308594 554.394531 2392.820312 C 572.726562 2378.335938 581.882812 2355.496094 581.882812 2324.351562 C 581.882812 2292.960938 572.996094 2269.796875 555.132812 2254.828125 C 537.492188 2239.617188 509.21875 2232.003906 470.355469 2232.003906 Z M 626.34375 2232.003906 L 626.34375 2485.164062 L 812.867188 2485.164062 L 812.867188 2435.191406 L 682.847656 2435.191406 L 682.847656 2382.679688 L 796.210938 2382.679688 L 796.210938 2334.492188 L 682.847656 2334.492188 L 682.847656 2282.332031 L 808.90625 2282.332031 L 808.90625 2232.003906 Z M 863.328125 2232.003906 L 863.328125 2485.164062 L 919.828125 2485.164062 L 919.828125 2326.535156 L 1040.429688 2485.164062 L 1096.949219 2485.164062 L 1096.949219 2232.003906 L 1040.429688 2232.003906 L 1040.429688 2394.964844 L 916.203125 2232.003906 Z M 1424.269531 2232.003906 L 1424.269531 2485.164062 L 1480.75 2485.164062 L 1480.75 2232.003906 Z M 1543.121094 2232.003906 L 1543.121094 2485.164062 L 1707.5 2485.164062 L 1707.5 2434.796875 L 1599.601562 2434.796875 L 1599.601562 2232.003906 Z M 437.378906 2280.539062 L 469.636719 2280.539062 C 488.242188 2280.539062 501.894531 2283.660156 510.582031 2289.9375 C 519.515625 2295.976562 523.949219 2306.386719 523.949219 2321.113281 C 523.949219 2335.601562 520.566406 2346.703125 513.804688 2354.433594 C 507.046875 2361.917969 494.261719 2365.625 475.414062 2365.625 L 437.378906 2365.625 L 437.378906 2280.539062 "/>
<path fill-rule="nonzero" fill="rgb(98.826599%, 56.834412%, 1.177979%)" fill-opacity="1" d="M 2117.058594 2226.1875 C 2079.648438 2226.1875 2048.128906 2238.769531 2022.550781 2263.878906 C 1996.941406 2288.75 1984.148438 2319.785156 1984.148438 2356.96875 C 1984.148438 2394.152344 1996.941406 2425.296875 2022.550781 2450.40625 C 2048.128906 2475.273438 2079.648438 2487.703125 2117.058594 2487.703125 C 2154.488281 2487.703125 2186.011719 2475.273438 2211.601562 2450.40625 C 2237.191406 2425.296875 2249.988281 2394.152344 2249.988281 2356.96875 C 2249.988281 2319.785156 2237.191406 2288.75 2211.601562 2263.878906 C 2186.011719 2238.769531 2154.488281 2226.1875 2117.058594 2226.1875 Z M 2416.28125 2226.1875 C 2378.851562 2226.1875 2347.371094 2238.769531 2321.789062 2263.878906 C 2296.179688 2288.75 2283.351562 2319.785156 2283.351562 2356.96875 C 2283.351562 2394.152344 2296.179688 2425.296875 2321.789062 2450.40625 C 2347.371094 2475.273438 2378.851562 2487.703125 2416.28125 2487.703125 C 2453.710938 2487.703125 2485.210938 2475.273438 2510.800781 2450.40625 C 2536.410156 2425.296875 2549.191406 2394.152344 2549.191406 2356.96875 C 2549.191406 2319.785156 2536.410156 2288.75 2510.800781 2263.878906 C 2485.210938 2238.769531 2453.710938 2226.1875 2416.28125 2226.1875 Z M 1748.960938 2232.003906 L 1748.960938 2485.164062 L 1859.75 2485.164062 C 1894.519531 2485.164062 1918.941406 2477.292969 1932.949219 2461.601562 C 1945.019531 2448.078125 1951.039062 2432.527344 1951.039062 2414.902344 C 1951.039062 2398.964844 1946.339844 2385.691406 1936.921875 2375.070312 C 1927.738281 2364.203125 1915.289062 2357.070312 1899.578125 2353.691406 C 1903.921875 2351.765625 1906.988281 2350.441406 1908.691406 2349.710938 C 1910.480469 2348.746094 1913.339844 2346.574219 1917.691406 2343.195312 C 1930.488281 2333.535156 1936.921875 2318.789062 1936.921875 2298.992188 C 1936.921875 2282.570312 1931.230469 2267.867188 1919.878906 2254.828125 C 1913.609375 2247.824219 1904.191406 2242.273438 1891.628906 2238.171875 C 1879.320312 2234.066406 1864.609375 2232.003906 1847.460938 2232.003906 Z M 2597.070312 2232.003906 L 2597.070312 2485.164062 L 2653.550781 2485.164062 L 2653.550781 2413.460938 L 2678.921875 2385.214844 L 2753.148438 2485.164062 L 2819.101562 2485.164062 C 2807.511719 2468.988281 2790 2444.457031 2766.578125 2411.621094 C 2743.171875 2378.542969 2727.089844 2355.964844 2718.410156 2343.894531 L 2819.101562 2232.003906 L 2749.191406 2232.003906 L 2653.550781 2335.9375 L 2653.550781 2232.003906 Z M 2117.058594 2275.46875 C 2138.328125 2275.46875 2156.171875 2283.449219 2170.679688 2299.382812 C 2185.140625 2315.320312 2192.410156 2334.621094 2192.410156 2357.316406 C 2192.410156 2379.773438 2185.140625 2398.964844 2170.679688 2414.902344 C 2156.171875 2430.59375 2138.328125 2438.425781 2117.058594 2438.425781 C 2096.058594 2438.425781 2078.308594 2430.59375 2063.800781 2414.902344 C 2049.339844 2398.964844 2042.128906 2379.773438 2042.128906 2357.316406 C 2042.128906 2334.621094 2049.339844 2315.320312 2063.800781 2299.382812 C 2078.308594 2283.449219 2096.058594 2275.46875 2117.058594 2275.46875 Z M 2416.28125 2275.46875 C 2437.519531 2275.46875 2455.390625 2283.449219 2469.871094 2299.382812 C 2484.359375 2315.320312 2491.609375 2334.621094 2491.609375 2357.316406 C 2491.609375 2379.773438 2484.359375 2398.964844 2469.871094 2414.902344 C 2455.390625 2430.59375 2437.519531 2438.425781 2416.28125 2438.425781 C 2395.28125 2438.425781 2377.550781 2430.59375 2363.070312 2414.902344 C 2348.558594 2398.964844 2341.328125 2379.773438 2341.328125 2357.316406 C 2341.328125 2334.621094 2348.558594 2315.320312 2363.070312 2299.382812 C 2377.550781 2283.449219 2395.28125 2275.46875 2416.28125 2275.46875 Z M 1805.441406 2279.796875 L 1832.601562 2279.796875 C 1849.269531 2279.796875 1861.121094 2281.585938 1868.101562 2285.21875 C 1875.109375 2288.839844 1878.601562 2296.34375 1878.601562 2307.691406 C 1878.601562 2318.796875 1874.75 2326.042969 1867 2329.421875 C 1859.53125 2332.804688 1847.949219 2334.492188 1832.261719 2334.492188 L 1805.441406 2334.492188 Z M 1805.441406 2379.050781 L 1838.769531 2379.050781 C 1857.601562 2379.050781 1871.238281 2380.953125 1879.699219 2384.820312 C 1888.378906 2388.441406 1892.730469 2396.164062 1892.730469 2407.992188 C 1892.730469 2419.582031 1888.609375 2427.453125 1880.390625 2431.5625 C 1872.421875 2435.421875 1860.378906 2437.332031 1844.191406 2437.332031 L 1805.441406 2437.332031 L 1805.441406 2379.050781 "/>
<path fill-rule="nonzero" fill="rgb(41.184998%, 41.184998%, 41.184998%)" fill-opacity="1" d="M 1056.371094 2639.421875 C 1044.5 2639.421875 1034.449219 2643.390625 1026.210938 2651.402344 C 1018.039062 2659.414062 1013.96875 2669.425781 1013.96875 2681.441406 C 1013.96875 2693.378906 1017.96875 2703.316406 1025.988281 2711.171875 C 1034.070312 2719.03125 1044.320312 2722.933594 1056.71875 2722.933594 C 1069.191406 2722.933594 1080.011719 2717.78125 1089.160156 2707.457031 L 1077.628906 2695.5625 C 1071.988281 2702.570312 1064.78125 2706.058594 1055.941406 2706.058594 C 1049.46875 2706.058594 1043.941406 2703.78125 1039.421875 2699.238281 C 1034.851562 2694.691406 1032.589844 2688.691406 1032.589844 2681.222656 C 1032.589844 2673.671875 1034.941406 2667.730469 1039.710938 2663.339844 C 1044.570312 2658.871094 1050.390625 2656.605469 1057.171875 2656.605469 C 1065.628906 2656.605469 1072.75 2660.144531 1078.460938 2667.230469 L 1089.648438 2654.550781 C 1080.699219 2644.460938 1069.621094 2639.421875 1056.371094 2639.421875 Z M 1315.648438 2639.421875 C 1303.710938 2639.421875 1293.691406 2643.390625 1285.539062 2651.402344 C 1277.371094 2659.335938 1273.289062 2669.273438 1273.289062 2681.136719 C 1273.289062 2692.996094 1277.371094 2702.898438 1285.539062 2710.910156 C 1293.691406 2718.84375 1303.710938 2722.804688 1315.648438 2722.804688 C 1327.601562 2722.804688 1337.648438 2718.84375 1345.820312 2710.910156 C 1353.988281 2702.898438 1358.070312 2692.996094 1358.070312 2681.136719 C 1358.070312 2669.273438 1353.988281 2659.335938 1345.820312 2651.402344 C 1337.648438 2643.390625 1327.601562 2639.421875 1315.648438 2639.421875 Z M 1601.210938 2639.421875 C 1592.96875 2639.421875 1586.078125 2641.480469 1580.550781 2645.632812 C 1575.078125 2649.792969 1572.308594 2655.722656 1572.308594 2663.425781 C 1572.308594 2671.054688 1574.550781 2676.683594 1578.78125 2680.304688 C 1583.171875 2683.847656 1590.058594 2686.726562 1599.460938 2688.960938 C 1605.398438 2690.414062 1609.378906 2691.914062 1611.390625 2693.378906 C 1613.410156 2694.765625 1614.371094 2696.683594 1614.371094 2699.148438 C 1614.371094 2701.539062 1613.480469 2703.460938 1611.480469 2704.921875 C 1609.691406 2706.308594 1607.070312 2706.980469 1603.761719 2706.980469 C 1596.351562 2706.980469 1588.308594 2703.191406 1579.609375 2695.566406 L 1568.859375 2708.730469 C 1579.109375 2718.203125 1590.621094 2722.9375 1603.398438 2722.9375 C 1612.269531 2722.9375 1619.390625 2720.722656 1624.78125 2716.25 C 1630.269531 2711.707031 1633 2705.828125 1633 2698.585938 C 1633 2691.34375 1630.761719 2685.832031 1626.621094 2682.058594 C 1622.390625 2678.28125 1616.429688 2675.46875 1608.730469 2673.621094 C 1601.121094 2671.695312 1596.21875 2670.023438 1594.050781 2668.632812 C 1592.03125 2667.246094 1590.929688 2665.394531 1590.929688 2663.082031 C 1590.929688 2660.695312 1591.828125 2658.828125 1593.488281 2657.441406 C 1595.28125 2655.984375 1597.628906 2655.246094 1600.648438 2655.246094 C 1608.101562 2655.246094 1615.359375 2657.890625 1622.390625 2663.203125 L 1631.519531 2650.042969 C 1627.511719 2646.652344 1622.789062 2644.019531 1617.390625 2642.171875 C 1612 2640.316406 1606.628906 2639.417969 1601.210938 2639.417969 Z M 1749.609375 2639.421875 C 1737.679688 2639.421875 1727.648438 2643.390625 1719.5 2651.402344 C 1711.328125 2659.335938 1707.25 2669.273438 1707.25 2681.136719 C 1707.25 2692.996094 1711.328125 2702.898438 1719.5 2710.910156 C 1727.648438 2718.84375 1737.679688 2722.804688 1749.609375 2722.804688 C 1761.558594 2722.804688 1771.621094 2718.84375 1779.789062 2710.910156 C 1787.960938 2702.898438 1792.03125 2692.996094 1792.03125 2681.136719 C 1792.03125 2669.273438 1787.960938 2659.335938 1779.789062 2651.402344 C 1771.621094 2643.390625 1761.558594 2639.421875 1749.609375 2639.421875 Z M 1844.621094 2639.421875 C 1833.070312 2639.421875 1823.171875 2643.390625 1814.929688 2651.402344 C 1806.78125 2659.414062 1802.691406 2669.425781 1802.691406 2681.441406 C 1802.691406 2693.378906 1806.691406 2703.316406 1814.710938 2711.171875 C 1822.808594 2719.03125 1832.78125 2722.933594 1844.621094 2722.933594 C 1858.808594 2722.933594 1869.890625 2718.492188 1877.910156 2709.554688 L 1877.910156 2680.871094 L 1859.75 2680.871094 L 1859.75 2703.039062 C 1855.589844 2705.429688 1850.441406 2706.628906 1844.191406 2706.628906 C 1837.949219 2706.628906 1832.53125 2704.351562 1827.960938 2699.804688 C 1823.511719 2695.183594 1821.269531 2689.066406 1821.269531 2681.441406 C 1821.269531 2673.816406 1823.660156 2667.699219 1828.359375 2663.078125 C 1833.070312 2658.378906 1838.820312 2656.035156 1845.671875 2656.035156 C 1849.210938 2656.035156 1852.5 2656.640625 1855.519531 2657.871094 C 1858.589844 2659.035156 1861.941406 2661.1875 1865.570312 2664.34375 L 1874.929688 2650.835938 C 1866.378906 2643.210938 1856.261719 2639.421875 1844.621094 2639.421875 Z M 788.867188 2641.257812 L 788.867188 2722.015625 L 806.890625 2722.015625 L 806.890625 2699.496094 L 817.636719 2699.496094 C 829.589844 2699.496094 838.457031 2697.164062 844.230469 2692.546875 C 850.074219 2687.921875 852.984375 2680.660156 852.984375 2670.726562 C 852.984375 2660.710938 850.140625 2653.289062 844.453125 2648.515625 C 838.835938 2643.660156 829.835938 2641.257812 817.433594 2641.257812 Z M 867.175781 2641.257812 L 867.175781 2722.015625 L 919.605469 2722.015625 L 919.605469 2705.96875 L 885.199219 2705.96875 L 885.199219 2641.257812 Z M 957.214844 2641.257812 L 922.316406 2722.015625 L 941.523438 2722.015625 L 949.046875 2704.570312 L 982.871094 2704.570312 L 990.347656 2722.015625 L 1009.558594 2722.015625 L 974.65625 2641.257812 Z M 1103.46875 2641.257812 L 1103.46875 2722.015625 L 1162.929688 2722.015625 L 1162.929688 2706.054688 L 1121.488281 2706.054688 L 1121.488281 2689.308594 L 1157.640625 2689.308594 L 1157.640625 2673.960938 L 1121.488281 2673.960938 L 1121.488281 2657.304688 L 1161.671875 2657.304688 L 1161.671875 2641.257812 Z M 1198.300781 2641.257812 L 1226.230469 2690.140625 L 1226.230469 2722.015625 L 1244.300781 2722.015625 L 1244.300781 2690.140625 L 1272.238281 2641.257812 L 1252.738281 2641.257812 L 1235.300781 2671.296875 L 1217.839844 2641.257812 Z M 1372.191406 2641.257812 L 1372.191406 2686.421875 C 1372.191406 2698.054688 1375.441406 2707.039062 1381.890625 2713.359375 C 1388.449219 2719.671875 1396.78125 2722.800781 1406.871094 2722.800781 C 1416.949219 2722.800781 1425.230469 2719.683594 1431.699219 2713.445312 C 1438.171875 2707.128906 1441.410156 2698.132812 1441.410156 2686.421875 L 1441.410156 2641.257812 L 1423.390625 2641.257812 L 1423.390625 2685.855469 C 1423.390625 2692.324219 1421.828125 2697.429688 1418.890625 2701.203125 C 1415.960938 2704.898438 1411.949219 2706.753906 1406.871094 2706.753906 C 1401.789062 2706.753906 1397.71875 2704.894531 1394.71875 2701.203125 C 1391.71875 2697.429688 1390.21875 2692.324219 1390.21875 2685.855469 L 1390.21875 2641.257812 Z M 1460.199219 2641.257812 L 1460.199219 2722.015625 L 1478.261719 2722.015625 L 1478.261719 2696.261719 L 1490.730469 2696.261719 L 1508.660156 2722.015625 L 1530.828125 2722.015625 L 1510.359375 2693.113281 C 1520.621094 2689.339844 1525.738281 2681 1525.738281 2668.058594 C 1525.738281 2658.660156 1523.058594 2651.832031 1517.660156 2647.597656 C 1512.328125 2643.363281 1503.398438 2641.257812 1490.871094 2641.257812 Z M 1648.441406 2641.257812 L 1648.441406 2722.015625 L 1700.898438 2722.015625 L 1700.898438 2705.96875 L 1666.441406 2705.96875 L 1666.441406 2641.257812 Z M 1917.640625 2641.257812 L 1882.761719 2722.015625 L 1901.949219 2722.015625 L 1909.46875 2704.570312 L 1943.320312 2704.570312 L 1950.839844 2722.015625 L 1970.03125 2722.015625 L 1935.078125 2641.257812 Z M 1979.25 2641.257812 L 1979.25 2722.015625 L 1997.320312 2722.015625 L 1997.320312 2671.425781 L 2035.78125 2722.015625 L 2053.800781 2722.015625 L 2053.800781 2641.257812 L 2035.78125 2641.257812 L 2035.78125 2693.242188 L 1996.128906 2641.257812 Z M 2104.03125 2641.257812 L 2104.03125 2722.015625 L 2122.101562 2722.015625 L 2122.101562 2690.230469 L 2154.179688 2690.230469 L 2154.179688 2722.015625 L 2172.199219 2722.015625 L 2172.199219 2641.257812 L 2154.179688 2641.257812 L 2154.179688 2675.011719 L 2122.101562 2675.011719 L 2122.101562 2641.257812 Z M 2192.101562 2641.257812 L 2192.101562 2722.015625 L 2251.558594 2722.015625 L 2251.558594 2706.054688 L 2210.121094 2706.054688 L 2210.121094 2689.308594 L 2246.28125 2689.308594 L 2246.28125 2673.960938 L 2210.121094 2673.960938 L 2210.121094 2657.304688 L 2250.28125 2657.304688 L 2250.28125 2641.257812 Z M 2267.699219 2641.257812 L 2267.699219 2722.015625 L 2285.71875 2722.015625 L 2285.71875 2696.261719 L 2298.171875 2696.261719 L 2316.101562 2722.015625 L 2338.261719 2722.015625 L 2317.800781 2693.113281 C 2328.03125 2689.339844 2333.199219 2681 2333.199219 2668.058594 C 2333.199219 2658.660156 2330.488281 2651.832031 2325.101562 2647.597656 C 2319.789062 2643.363281 2310.820312 2641.257812 2298.261719 2641.257812 Z M 2351.648438 2641.257812 L 2351.648438 2722.015625 L 2411.109375 2722.015625 L 2411.109375 2706.054688 L 2369.671875 2706.054688 L 2369.671875 2689.308594 L 2405.828125 2689.308594 L 2405.828125 2673.960938 L 2369.671875 2673.960938 L 2369.671875 2657.304688 L 2409.828125 2657.304688 L 2409.828125 2641.257812 Z M 1315.648438 2655.117188 C 1322.429688 2655.117188 1328.121094 2657.640625 1332.75 2662.722656 C 1337.378906 2667.808594 1339.710938 2673.976562 1339.710938 2681.21875 C 1339.710938 2688.382812 1337.378906 2694.503906 1332.75 2699.585938 C 1328.121094 2704.59375 1322.429688 2707.105469 1315.648438 2707.105469 C 1308.949219 2707.105469 1303.308594 2704.59375 1298.699219 2699.585938 C 1294.089844 2694.503906 1291.738281 2688.382812 1291.738281 2681.21875 C 1291.738281 2673.976562 1294.089844 2667.808594 1298.699219 2662.722656 C 1303.308594 2657.640625 1308.949219 2655.117188 1315.648438 2655.117188 Z M 1749.609375 2655.117188 C 1756.390625 2655.117188 1762.121094 2657.640625 1766.761719 2662.722656 C 1771.390625 2667.808594 1773.648438 2673.976562 1773.648438 2681.21875 C 1773.648438 2688.382812 1771.390625 2694.503906 1766.761719 2699.585938 C 1762.121094 2704.59375 1756.390625 2707.105469 1749.609375 2707.105469 C 1742.921875 2707.105469 1737.269531 2704.59375 1732.640625 2699.585938 C 1728.03125 2694.503906 1725.738281 2688.382812 1725.738281 2681.21875 C 1725.738281 2673.976562 1728.03125 2667.808594 1732.640625 2662.722656 C 1737.269531 2657.640625 1742.921875 2655.117188 1749.609375 2655.117188 Z M 806.847656 2656.730469 L 817.121094 2656.730469 C 823.054688 2656.730469 827.441406 2657.738281 830.195312 2659.746094 C 833.039062 2661.671875 834.425781 2664.972656 834.425781 2669.671875 C 834.425781 2674.292969 833.308594 2677.832031 831.246094 2680.296875 C 829.007812 2682.683594 825 2683.882812 819.003906 2683.882812 L 806.847656 2683.882812 Z M 1478.261719 2656.730469 L 1491.78125 2656.730469 C 1497.558594 2656.730469 1501.589844 2657.511719 1503.890625 2659.132812 C 1506.199219 2660.746094 1507.390625 2663.792969 1507.390625 2668.183594 C 1507.390625 2672.496094 1506.269531 2675.625 1504.03125 2677.628906 C 1501.789062 2679.621094 1497.578125 2680.644531 1491.429688 2680.644531 L 1478.261719 2680.644531 Z M 2285.71875 2656.730469 L 2299.21875 2656.730469 C 2305 2656.730469 2309.03125 2657.511719 2311.328125 2659.132812 C 2313.640625 2660.746094 2314.78125 2663.792969 2314.78125 2668.183594 C 2314.78125 2672.496094 2313.660156 2675.625 2311.46875 2677.628906 C 2309.230469 2679.621094 2305.039062 2680.644531 2298.859375 2680.644531 L 2285.71875 2680.644531 Z M 965.992188 2665.300781 L 976.066406 2688.734375 L 955.804688 2688.734375 Z M 1926.441406 2665.300781 L 1936.488281 2688.734375 L 1916.300781 2688.734375 L 1926.441406 2665.300781 "/>
</svg>
